<?xml version="1.0" standalone="no"?>
<!DOCTYPE svg PUBLIC "-//W3C//DTD SVG 20010904//EN"
 "http://www.w3.org/TR/2001/REC-SVG-20010904/DTD/svg10.dtd">
<svg version="1.0" xmlns="http://www.w3.org/2000/svg"
 width="698.000000pt" height="698.000000pt" viewBox="0 0 698.000000 698.000000"
 preserveAspectRatio="xMidYMid meet">
<metadata>
Created by potrace 1.14, written by Peter Selinger 2001-2017
</metadata>
<g transform="translate(0.000000,698.000000) scale(0.100000,-0.100000)"
fill="#000000" stroke="none">
<path d="M0 6365 c0 -347 4 -615 9 -615 5 0 14 13 21 29 9 23 9 38 0 65 -19
60 -3 65 80 29 74 -32 136 -64 160 -82 l24 -19 -35 -34 c-36 -34 -95 -58 -140
-58 -13 0 -45 7 -71 15 l-48 14 0 -197 0 -198 48 -47 c27 -26 82 -65 122 -87
72 -37 74 -39 45 -45 -56 -13 -100 -27 -157 -52 l-58 -26 0 -91 1 -91 32 40
c140 174 327 235 542 176 90 -25 129 -45 187 -97 170 -150 220 -371 136 -596
-49 -128 -210 -250 -377 -283 -71 -15 -88 -15 -166 -1 -139 24 -240 84 -327
196 l-28 35 0 -91 0 -91 61 -28 c87 -39 114 -46 204 -53 l80 -7 3 -36 c3 -36
2 -36 -57 -59 -80 -30 -172 -90 -213 -140 -18 -23 -43 -53 -55 -68 -23 -26
-23 -32 -23 -285 0 -295 -6 -271 99 -380 81 -84 175 -125 351 -153 19 -3 70 1
113 9 43 8 76 12 74 8 -78 -144 -76 -255 13 -522 87 -259 124 -306 320 -410
60 -32 180 -125 260 -202 68 -65 175 -126 227 -128 67 -3 63 8 63 -197 0 -123
5 -207 14 -246 9 -36 12 -89 9 -140 -3 -51 -1 -77 5 -71 15 16 23 63 12 70 -6
3 3 18 20 32 25 20 33 23 45 13 11 -9 106 -11 402 -5 361 6 451 10 440 21 -6
6 -511 24 -694 25 -79 0 -151 -4 -161 -10 -15 -8 -24 -5 -41 13 -43 46 -11
107 52 98 27 -4 29 -6 12 -13 -11 -4 132 -8 318 -8 223 -1 337 2 337 9 0 6 18
9 44 6 34 -3 43 -1 39 10 -6 17 34 6 94 -26 24 -12 48 -20 54 -18 6 2 -9 15
-35 28 -25 14 -76 46 -113 71 -37 25 -113 70 -169 101 -55 31 -125 74 -154 96
-30 23 -57 39 -60 36 -7 -8 61 -64 77 -64 7 0 13 -3 13 -7 0 -5 34 -28 75 -52
128 -75 131 -73 -136 -70 -129 1 -285 1 -347 0 -62 -2 -115 -2 -116 0 -2 2 -8
68 -12 146 l-9 142 50 11 c28 6 64 17 80 25 122 58 160 66 168 35 3 -11 10
-20 15 -20 11 0 -9 41 -56 115 -35 56 -40 56 -16 0 14 -35 14 -39 -3 -56 -10
-9 -54 -30 -98 -45 -107 -37 -228 -39 -295 -5 -45 23 -130 91 -205 164 -41 40
-171 129 -241 166 -60 32 -136 93 -161 129 -30 46 -122 283 -139 362 -8 36
-18 83 -24 105 -15 61 -12 106 10 179 17 54 33 79 82 131 109 117 223 163 377
151 124 -10 146 -19 178 -74 30 -53 103 -164 113 -172 12 -10 90 -147 109
-193 25 -57 97 -263 115 -327 8 -25 35 -103 60 -175 26 -71 54 -150 62 -175
18 -54 36 -91 41 -87 2 2 -24 84 -58 183 -33 98 -67 197 -74 219 -8 22 -34 98
-59 169 -25 71 -46 140 -46 152 0 12 -14 48 -30 79 -17 32 -46 114 -65 184
-19 69 -47 169 -62 221 -14 52 -32 120 -39 150 -7 30 -20 84 -29 120 -18 69
-16 144 7 345 10 88 9 108 -7 165 -9 36 -21 90 -25 121 -10 72 -29 131 -41
124 -5 -4 -9 6 -9 20 0 14 4 24 8 21 5 -3 14 50 21 117 7 67 17 151 23 185 11
62 14 65 67 103 31 21 67 47 81 58 14 11 30 21 36 21 6 0 22 9 36 19 25 20 25
22 32 238 3 120 9 229 12 241 11 38 24 5 24 -58 1 -73 16 -176 42 -282 26
-106 32 -108 122 -43 35 25 68 45 73 45 5 0 24 13 43 29 l35 29 -3 132 c-4
165 8 213 134 535 26 66 51 124 55 130 5 5 9 -36 9 -95 0 -160 25 -337 61
-443 33 -99 53 -137 71 -137 14 0 179 64 245 95 29 14 63 29 76 34 22 8 25 17
30 87 4 42 7 107 7 143 0 113 59 382 101 460 11 20 19 40 19 46 0 14 71 188
81 200 13 13 11 -19 -6 -109 -19 -97 -22 -412 -5 -507 6 -35 23 -108 38 -161
21 -77 30 -97 42 -93 8 3 62 14 120 24 126 23 137 27 143 51 3 10 0 60 -5 112
-12 103 1 310 27 445 40 208 48 243 55 243 11 0 28 -82 35 -170 4 -41 8 -82
10 -90 2 -8 11 -76 20 -150 18 -154 53 -357 67 -382 5 -11 20 -18 38 -18 l30
0 0 278 c0 282 7 419 20 405 12 -12 57 -166 84 -283 13 -58 31 -130 39 -161 8
-30 20 -89 27 -131 7 -42 15 -80 19 -86 4 -6 80 -11 196 -13 l190 -3 -1 182
c-1 101 -4 201 -8 222 -3 22 -2 40 2 40 14 0 95 -284 118 -413 3 -20 10 -40
15 -43 15 -9 153 -43 205 -49 68 -9 80 4 89 97 10 115 11 413 2 523 -6 67 -5
97 2 90 10 -10 85 -191 122 -295 63 -175 85 -257 95 -347 8 -70 19 -93 43 -93
10 0 35 -7 54 -15 66 -27 67 -26 67 78 -1 83 -4 129 -25 332 l-6 60 26 -60
c29 -67 69 -223 85 -330 18 -120 12 -111 100 -139 44 -14 86 -23 95 -20 15 6
20 29 29 119 4 50 -8 247 -18 295 -21 95 -32 170 -25 170 18 0 79 -380 79
-499 0 -31 6 -64 12 -73 7 -8 42 -25 78 -37 124 -43 196 -81 215 -113 21 -36
23 -135 4 -303 -6 -60 -12 -200 -13 -310 l-1 -200 54 -180 c49 -164 53 -186
48 -250 -3 -38 -12 -96 -21 -128 -8 -32 -24 -111 -36 -175 -11 -64 -29 -160
-41 -212 -11 -52 -22 -106 -25 -118 -13 -60 19 1 71 140 32 84 68 165 82 179
13 14 20 28 17 32 -4 3 10 50 29 104 20 54 46 151 57 215 32 188 56 276 86
316 81 110 192 179 338 211 82 18 89 18 173 2 105 -21 149 -38 228 -92 63 -43
135 -130 173 -211 25 -50 54 -176 46 -190 -8 -12 -126 2 -140 16 -7 6 -19 34
-28 62 -22 69 -95 170 -152 210 -70 50 -134 68 -239 67 -122 -2 -190 -28 -267
-101 -92 -87 -138 -191 -138 -308 0 -64 31 -166 66 -218 33 -48 24 -55 -66
-57 -36 0 -73 -3 -82 -7 -10 -4 26 -7 80 -7 107 0 137 -10 207 -67 22 -19 52
-34 69 -35 229 -16 218 -17 292 12 82 32 175 115 206 183 22 48 22 48 126 26
31 -6 42 -26 22 -39 -6 -4 -17 -23 -25 -42 -24 -57 -142 -164 -227 -206 -88
-44 -151 -57 -270 -57 -88 0 -89 0 -82 -22 4 -13 10 -39 14 -58 5 -27 9 -31
15 -17 5 13 19 17 59 17 220 0 420 119 515 305 23 44 41 85 41 92 0 6 10 13
22 15 17 2 25 13 33 45 5 23 18 50 27 60 10 10 19 34 20 53 3 30 -1 36 -34 53
-24 13 -38 28 -39 41 -1 12 -3 41 -4 66 -3 57 -78 215 -119 252 -18 16 -25 28
-16 28 7 0 24 -10 37 -22 13 -12 23 -16 23 -10 0 7 5 12 10 12 6 0 10 -6 10
-14 0 -8 7 -22 16 -30 8 -9 11 -16 5 -16 -18 0 -12 -13 23 -52 19 -21 30 -40
25 -43 -5 -4 -9 -1 -9 6 0 7 -3 10 -6 7 -3 -4 0 -16 6 -28 8 -14 15 -19 19
-12 11 18 34 -4 34 -32 0 -18 5 -26 17 -26 10 0 23 -13 30 -30 7 -16 18 -30
25 -30 10 0 36 -40 39 -60 3 -16 19 -28 30 -24 9 3 19 -7 27 -25 18 -39 29
-39 29 -1 0 17 5 30 10 30 6 0 10 -9 10 -20 0 -11 5 -20 10 -20 6 0 10 61 10
164 0 134 -3 165 -15 169 -8 4 -23 23 -34 44 -16 32 -119 182 -149 219 -5 5
-15 21 -22 34 -7 13 -21 33 -31 44 -25 27 -24 49 5 83 37 44 94 164 102 214 4
26 17 53 32 68 14 14 28 39 33 55 4 17 13 45 20 63 21 52 4 85 -56 104 -41 14
-52 23 -62 50 -7 19 -12 41 -12 50 -1 10 -16 39 -33 66 -18 27 -39 61 -47 75
-35 67 -195 174 -297 199 -27 6 -53 15 -57 19 -4 4 17 34 46 67 30 34 67 86
82 117 15 31 32 56 37 56 5 0 7 4 3 9 -3 5 8 31 23 58 34 58 43 87 49 172 3
43 8 60 14 50 7 -11 9 -9 9 9 0 12 -4 22 -9 22 -4 0 -8 23 -8 52 0 49 13 78
35 78 14 0 36 -29 28 -38 -4 -4 -15 2 -23 13 -14 17 -15 18 -9 2 3 -10 6 -21
6 -23 0 -2 6 -4 13 -4 14 0 15 -12 17 -102 0 -44 4 -58 15 -58 11 0 15 11 15
40 0 22 5 40 10 40 6 0 10 -23 10 -51 0 -39 -3 -50 -13 -46 -29 11 -40 -11
-45 -87 -4 -68 -2 -78 19 -103 27 -32 29 -33 64 -33 23 0 25 -4 25 -40 0 -39
1 -40 35 -40 33 0 35 -2 35 -35 0 -28 4 -35 20 -35 15 0 20 7 20 25 0 21 5 25
30 25 17 0 30 5 30 10 0 6 -13 10 -30 10 -16 0 -30 5 -30 10 0 6 13 10 28 10
16 0 39 8 50 19 l22 18 0 652 0 651 -736 0 -736 0 3 -44 c2 -24 1 -42 -3 -39
-5 2 -8 22 -8 44 0 32 -3 39 -20 39 -16 0 -20 -7 -20 -35 0 -54 -20 -136 -48
-190 -54 -108 -209 -273 -278 -295 -74 -25 -292 5 -529 71 -163 46 -564 271
-720 404 -50 42 -51 43 -134 44 -53 1 -99 -4 -125 -14 -48 -17 -325 -43 -554
-52 -160 -6 -163 -6 -187 17 -14 13 -25 29 -25 37 0 7 -7 13 -15 13 -20 0 -19
-8 5 -47 11 -18 27 -33 37 -33 39 0 0 -12 -49 -15 -53 -3 -105 -12 -120 -21
-4 -3 -8 0 -8 5 0 12 80 91 92 91 5 0 8 5 8 10 0 25 -38 4 -139 -77 -168 -137
-448 -318 -529 -343 -20 -7 -82 -32 -137 -55 -313 -135 -632 -198 -746 -148
-86 38 -192 199 -220 331 -16 77 -29 93 -106 131 -89 45 -159 90 -206 135
l-37 36 -345 0 -345 0 0 -615z m3850 553 c0 -5 -3 -8 -7 -8 -10 0 -43 32 -43
42 0 11 49 -24 50 -34z m-245 2 c3 -6 -1 -7 -9 -4 -18 7 -21 14 -7 14 6 0 13
-4 16 -10z m-18 -15 c5 -4 -13 -5 -39 -3 -32 4 -45 2 -41 -5 4 -6 0 -8 -11 -4
-10 4 -23 7 -29 8 -7 0 -3 4 8 9 24 10 102 7 112 -5z m-179 -22 c-18 -13 -38
-21 -45 -19 -6 3 -13 1 -15 -4 -2 -4 -12 -10 -23 -12 -15 -2 -21 3 -23 23 -3
23 0 26 34 27 20 1 39 4 41 6 3 3 18 4 34 4 l29 -1 -32 -24z m482 7 l20 -20
-21 0 c-11 0 -30 5 -42 12 -21 11 -21 11 -2 19 11 4 21 8 23 8 1 1 11 -8 22
-19z m-661 -9 c8 -14 7 -20 -4 -25 -11 -4 -15 2 -15 19 0 30 6 32 19 6z m-29
-6 c0 -8 -8 -15 -17 -15 -10 0 -35 -3 -55 -6 -31 -5 -38 -3 -38 9 0 15 8 17
93 25 9 1 17 -5 17 -13z m2300 -1 c0 -8 -5 -12 -10 -9 -6 4 -8 11 -5 16 9 14
15 11 15 -7z m-2472 -1 c-10 -2 -26 -2 -35 0 -10 3 -2 5 17 5 19 0 27 -2 18
-5z m-181 -9 c-3 -3 -12 -4 -19 -1 -8 3 -5 6 6 6 11 1 17 -2 13 -5z m-161 -23
c-17 -19 -17 -19 5 -14 15 4 20 3 15 -5 -4 -7 -24 -12 -44 -11 -20 0 -30 3
-22 6 8 4 21 14 28 25 7 10 18 18 24 18 6 0 3 -9 -6 -19z m2804 -36 c0 -5 -5
-3 -10 5 -5 8 -10 20 -10 25 0 6 5 3 10 -5 5 -8 10 -19 10 -25z m-1514 -10
c-35 -19 -37 -19 -30 0 4 8 18 15 33 15 l26 0 -29 -15z m-1370 -10 c-11 -8
-16 -15 -12 -15 4 0 4 -5 1 -10 -4 -6 -11 -8 -16 -4 -12 7 18 44 35 44 6 0 2
-7 -8 -15z m1419 5 c-3 -5 -11 -10 -16 -10 -6 0 -7 5 -4 10 3 6 11 10 16 10 6
0 7 -4 4 -10z m-1390 -30 c-3 -5 -10 -10 -16 -10 -5 0 -9 5 -9 10 0 6 7 10 16
10 8 0 12 -4 9 -10z m1435 -20 c18 -12 2 -12 -25 0 -13 6 -15 9 -5 9 8 0 22
-4 30 -9z m85 -34 c11 -3 30 -14 42 -24 l23 -17 -25 -1 c-17 -1 -25 4 -26 15
-1 14 -2 14 -6 -1 -2 -10 -11 -18 -18 -18 -8 0 -12 6 -9 14 3 8 -3 19 -15 26
-12 6 -21 18 -21 27 0 15 2 15 18 1 9 -9 26 -18 37 -22z m-1690 -26 c-3 -5
-11 -10 -16 -10 -6 0 -7 5 -4 10 3 6 11 10 16 10 6 0 7 -4 4 -10z m2936 -23
c-10 -9 -11 -8 -5 6 3 10 9 15 12 12 3 -3 0 -11 -7 -18z m-1131 -17 c10 0 21
-4 25 -9 3 -5 18 -12 34 -16 16 -3 35 -13 42 -21 6 -8 19 -14 28 -14 9 0 25
-8 36 -16 19 -15 18 -16 -15 -9 -19 4 -49 18 -66 31 -17 13 -34 21 -37 18 -3
-4 -16 1 -28 9 -11 9 -28 13 -35 10 -10 -3 -14 2 -13 18 0 13 3 18 6 12 2 -7
13 -13 23 -13z m1120 -9 c0 -5 -9 -19 -20 -32 -17 -21 -19 -21 -13 -4 10 33
33 57 33 36z m-3040 -41 c0 -5 -4 -10 -9 -10 -6 0 -13 5 -16 10 -3 6 1 10 9
10 9 0 16 -4 16 -10z m-85 -38 c-24 -24 -33 -27 -48 -18 -16 10 -16 12 5 20
13 4 30 12 38 16 31 18 34 9 5 -18z m3952 12 c-3 -3 -12 -4 -19 -1 -8 3 -5 6
6 6 11 1 17 -2 13 -5z m-887 -19 c0 -8 -4 -15 -10 -15 -5 0 -10 7 -10 15 0 8
5 15 10 15 6 0 10 -7 10 -15z m857 -20 c111 -37 263 -141 263 -181 0 -7 -15
-24 -32 -38 -44 -34 -30 -33 35 3 49 28 144 61 174 61 18 0 16 -38 -3 -75 -13
-25 -14 -36 -3 -68 7 -23 9 -41 3 -46 -13 -12 -179 -43 -230 -43 -115 0 -131
26 -58 94 33 30 42 44 31 48 -8 3 -27 20 -42 38 -35 42 -117 96 -178 116 -26
9 -76 16 -110 16 -168 0 -303 -82 -373 -227 -48 -98 -56 -170 -34 -278 17 -83
49 -141 112 -202 66 -64 136 -99 224 -113 168 -27 315 38 414 184 42 62 63
149 58 245 -3 51 -1 55 22 62 14 4 42 7 62 8 35 1 38 -1 45 -36 22 -102 -9
-252 -68 -339 -50 -73 -146 -162 -209 -194 -94 -47 -170 -63 -275 -57 -102 6
-167 25 -243 74 -117 74 -182 155 -229 284 -23 63 -27 89 -26 179 0 89 5 116
27 175 58 154 176 268 324 316 88 28 222 25 319 -6z m-3982 -5 c3 -5 -2 -11
-12 -12 -10 0 -23 -2 -30 -2 -6 -1 -22 -11 -35 -22 -13 -12 -34 -25 -48 -29
-18 -5 -21 -4 -10 4 8 5 12 12 9 15 -3 3 -14 -1 -25 -9 -19 -15 -19 -15 0 -30
11 -8 15 -15 10 -15 -13 0 -54 29 -54 39 0 14 101 53 137 54 18 1 33 5 33 9 0
11 18 10 25 -2z m3099 -19 c-4 -3 -9 0 -11 7 -3 6 -10 9 -15 6 -7 -4 -8 -2 -4
5 6 9 11 9 22 0 8 -6 12 -15 8 -18z m-760 8 c-5 -8 2 -10 22 -6 18 3 44 -2 68
-14 22 -10 49 -19 60 -19 18 0 16 -3 -8 -15 -35 -19 -37 -19 -29 1 5 14 1 16
-28 12 -24 -4 -37 0 -46 11 -10 13 -14 14 -22 2 -7 -11 -13 -11 -32 0 -16 8
-20 14 -10 17 11 4 11 6 0 13 -10 6 -8 9 9 9 15 0 21 -4 16 -11z m-47 -5 c-3
-3 -12 -4 -19 -1 -8 3 -5 6 6 6 11 1 17 -2 13 -5z m733 -44 c0 -5 -5 -10 -11
-10 -5 0 -7 5 -4 10 3 6 8 10 11 10 2 0 4 -4 4 -10z m-453 -8 c17 -11 2 -30
-27 -35 -14 -2 -18 -2 -10 1 12 4 11 7 -5 14 -15 6 -13 7 10 3 28 -5 29 -4 11
10 -14 11 -16 15 -5 15 8 0 19 -4 26 -8z m1671 -17 c6 -14 8 -25 4 -25 -12 0
-32 23 -32 37 0 22 16 15 28 -12z m-4438 -5 c0 -5 -8 -6 -19 -3 -11 3 -21 -2
-24 -11 -4 -9 -13 -13 -22 -10 -21 8 -19 18 8 30 23 10 57 7 57 -6z m2920 0
c49 0 56 -3 57 -20 1 -11 -4 -20 -13 -20 -8 0 -14 7 -14 15 0 14 -59 21 -145
16 l-20 -1 20 10 c11 5 29 7 40 5 11 -3 45 -5 75 -5z m-3010 -13 c0 -21 -46
-38 -72 -28 -22 9 -22 9 7 16 17 3 37 10 45 15 20 12 20 12 20 -3z m4240 -21
c49 -17 157 -97 167 -123 6 -16 -46 -73 -67 -73 -6 0 -35 24 -64 54 -48 47
-63 56 -133 75 -87 23 -192 27 -242 10 -18 -6 -34 -9 -37 -6 -8 7 59 46 118
67 63 24 185 21 258 -4z m350 9 c0 -11 -29 -11 -33 -1 -4 10 1 12 14 9 10 -3
19 -7 19 -8z m-4686 -24 c3 -5 -4 -11 -17 -15 -16 -4 -19 -8 -9 -14 9 -6 -7
-15 -49 -27 -44 -12 -64 -14 -67 -6 -2 6 -8 8 -13 5 -6 -3 -5 -12 3 -22 12
-14 10 -14 -17 -7 -16 5 -43 8 -60 7 -16 -2 -48 -3 -69 -3 -27 -1 -35 -4 -25
-10 10 -6 6 -9 -15 -9 -25 0 -27 2 -15 16 8 10 22 14 38 11 13 -3 32 -1 40 3
9 4 36 13 61 19 137 36 166 45 175 52 12 12 32 11 39 0z m4723 3 c-3 -3 -12
-4 -19 -1 -8 3 -5 6 6 6 11 1 17 -2 13 -5z m137 -96 c-4 -13 -7 -27 -5 -33 2
-5 3 -25 3 -42 -1 -19 4 -33 10 -33 6 0 9 -2 6 -5 -3 -3 -12 -3 -20 0 -19 7
-24 111 -7 131 16 20 23 11 13 -18z m-5219 -26 c-11 -2 -23 -9 -27 -16 -4 -6
-6 -2 -6 10 2 16 7 19 27 15 22 -4 23 -6 6 -9z m-1085 -12 c0 -5 -4 -10 -10
-10 -5 0 -10 5 -10 10 0 6 5 10 10 10 6 0 10 -4 10 -10z m5435 -8 c-3 -3 -11
0 -18 7 -9 10 -8 11 6 5 10 -3 15 -9 12 -12z m295 8 c0 -5 -4 -10 -10 -10 -5
0 -10 5 -10 10 0 6 5 10 10 10 6 0 10 -4 10 -10z m-5870 -10 c0 -5 -4 -10 -10
-10 -5 0 -10 5 -10 10 0 6 5 10 10 10 6 0 10 -4 10 -10z m5513 3 c-7 -2 -19
-2 -25 0 -7 3 -2 5 12 5 14 0 19 -2 13 -5z m-5428 -13 c3 -5 -1 -10 -10 -10
-9 0 -13 5 -10 10 3 6 8 10 10 10 2 0 7 -4 10 -10z m368 -6 c169 -38 294 -135
364 -284 55 -117 67 -199 48 -319 -34 -208 -161 -355 -362 -417 -74 -24 -95
-26 -181 -21 -142 7 -236 50 -337 151 -86 86 -155 218 -155 295 0 25 1 26 54
23 l54 -4 11 -45 c28 -111 108 -217 206 -273 106 -61 279 -64 391 -8 111 55
218 195 225 294 10 158 -9 240 -76 331 -176 237 -517 230 -684 -14 -24 -34
-47 -63 -51 -63 -11 0 -100 40 -100 45 0 2 12 26 26 52 93 168 257 268 447
272 26 1 80 -6 120 -15z m5027 2 c0 -3 -4 -8 -10 -11 -5 -3 -10 -1 -10 4 0 6
5 11 10 11 6 0 10 -2 10 -4z m251 -58 c54 -24 60 -33 27 -44 -13 -3 -35 -15
-51 -26 -24 -17 -32 -18 -63 -8 -37 12 -165 9 -211 -5 -20 -6 -23 -4 -23 17 0
35 50 71 125 91 39 11 148 -3 196 -25z m-5816 2 c8 -13 -15 -13 -35 0 -12 8
-11 10 7 10 12 0 25 -4 28 -10z m6005 -49 c5 -11 10 -36 10 -56 0 -35 -2 -37
-74 -71 -105 -48 -166 -44 -166 11 1 33 31 63 105 99 80 40 110 44 125 17z
m-6110 -6 c0 -8 -4 -15 -10 -15 -5 0 -10 7 -10 15 0 8 5 15 10 15 6 0 10 -7
10 -15z m6350 -15 c11 -7 15 -28 15 -82 0 -62 -5 -84 -34 -146 -30 -63 -85
-131 -97 -119 -2 2 3 23 11 47 24 68 29 166 12 237 -8 34 -12 65 -9 68 9 9 86
5 102 -5z m-151 -26 c9 -20 9 -25 0 -22 -14 5 -32 48 -20 48 4 0 13 -12 20
-26z m-5499 -13 c106 -55 169 -124 209 -229 29 -73 29 -192 0 -264 -24 -62
-50 -95 -42 -54 7 37 -24 172 -55 236 -72 149 -243 233 -397 194 -33 -8 -71
-18 -84 -21 -13 -3 -43 -26 -66 -49 -23 -24 -47 -44 -53 -44 -21 0 -13 40 17
83 56 82 98 115 190 154 49 21 68 23 148 20 69 -3 102 -10 133 -26z m5502
-109 c-6 -2 -8 -13 -6 -25 3 -13 1 -16 -2 -7 -4 8 -12 18 -18 22 -7 5 -7 8 3
8 9 0 11 8 7 28 -5 20 -4 23 4 12 7 -12 10 -7 12 20 1 30 2 29 5 -10 3 -24 0
-46 -5 -48z m-32 53 c-7 -9 -15 -13 -17 -11 -7 7 7 26 19 26 6 0 6 -6 -2 -15z
m-46 -56 c25 -43 16 -160 -18 -235 -23 -50 -25 -52 -74 -59 -28 -4 -55 -4 -60
-1 -6 3 -1 24 11 47 14 28 23 74 28 138 5 53 8 97 9 98 0 3 74 42 80 43 3 0
14 -14 24 -31z m93 -41 c-3 -8 -6 -5 -6 6 -1 11 2 17 5 13 3 -3 4 -12 1 -19z
m-5617 -3 c7 -4 -5 -24 -29 -50 -48 -52 -76 -105 -96 -182 -26 -99 -16 -253
22 -327 l15 -29 -39 7 c-86 15 -101 25 -119 73 -12 29 -18 75 -19 122 l0 76
32 3 c42 4 51 18 59 83 6 56 -4 80 -38 91 -20 7 19 84 60 120 33 28 40 30 88
25 30 -3 58 -8 64 -12z m5595 -108 c-8 -20 -17 -37 -20 -37 -10 0 8 115 19
122 18 12 19 -43 1 -85z m-5867 62 c-2 -3 3 -13 11 -22 9 -11 10 -17 2 -17 -6
0 -11 -6 -11 -13 0 -9 -11 -12 -35 -9 -30 4 -33 6 -20 19 9 8 20 23 26 34 6
11 15 19 20 17 6 -2 9 -6 7 -9z m46 -121 c26 -10 28 -14 23 -51 -3 -22 -11
-44 -19 -48 -7 -5 -43 -9 -80 -9 -56 0 -69 3 -78 19 -13 26 -14 24 20 59 17
18 30 37 30 42 0 12 58 5 104 -12z m6376 -3 c0 -11 -11 -15 -40 -15 -29 0 -40
4 -40 15 0 11 11 15 40 15 29 0 40 -4 40 -15z m-3465 -225 c3 -47 9 -109 14
-137 6 -40 5 -53 -4 -53 -23 0 -33 25 -35 95 -1 39 -3 81 -3 95 0 14 1 63 2
110 l3 85 9 -55 c5 -30 11 -93 14 -140z m3625 180 c0 -5 -4 -10 -10 -10 -5 0
-10 5 -10 10 0 6 5 10 10 10 6 0 10 -4 10 -10z m-6653 -100 c29 0 32 -8 38
-77 3 -32 8 -71 11 -88 l6 -30 -33 35 c-50 52 -87 112 -94 154 l-7 36 28 -15
c16 -8 39 -15 51 -15z m2990 -22 c-2 -13 -4 -5 -4 17 -1 22 1 32 4 23 2 -10 2
-28 0 -40z m-760 -10 c-3 -8 -6 -5 -6 6 -1 11 2 17 5 13 3 -3 4 -12 1 -19z
m259 -14 c-4 -14 -9 -24 -12 -21 -3 2 -2 17 2 31 3 15 9 25 11 22 3 -3 2 -17
-1 -32z m13 -68 c9 -10 8 -15 -4 -20 -10 -4 -15 1 -15 14 0 24 4 25 19 6z
m1527 -77 c6 -124 8 -123 -90 -114 -106 9 -146 25 -146 60 0 22 3 25 20 20 11
-4 20 -2 20 4 0 6 5 11 11 11 5 0 7 -4 4 -10 -4 -6 11 -10 39 -10 34 0 51 6
72 25 15 14 33 25 40 25 10 0 14 13 14 42 0 71 11 34 16 -53z m-1280 49 c0
-18 4 -58 8 -88 7 -50 6 -56 -10 -57 -20 -2 -162 -29 -204 -39 -25 -5 -26 -3
-37 58 -6 35 -13 72 -15 83 -3 11 -3 15 -1 9 2 -7 13 -14 24 -17 11 -3 18 -11
17 -18 -2 -7 2 -13 9 -14 7 0 18 -6 25 -12 18 -19 88 -17 88 2 0 8 18 31 40
51 21 19 42 44 45 55 9 27 12 24 11 -13z m-537 -14 c8 5 11 -27 11 -113 l0
-121 -44 -20 c-25 -11 -50 -20 -56 -20 -5 0 -18 -4 -28 -9 -9 -5 -58 -25 -109
-44 -98 -37 -113 -35 -113 13 0 15 -7 50 -16 79 -8 29 -13 58 -10 64 2 7 5 2
5 -10 1 -12 7 -26 14 -30 8 -4 17 -17 21 -28 5 -13 10 -15 13 -7 8 20 25 14
18 -7 -3 -11 -1 -22 5 -26 6 -3 8 -11 5 -16 -4 -5 5 -9 19 -9 16 0 27 7 31 20
3 11 9 20 13 21 27 3 46 9 55 18 6 6 25 11 41 12 17 0 25 3 17 6 -9 4 -3 10
18 19 25 11 31 18 26 33 -3 11 0 23 7 28 7 4 13 14 14 21 1 6 2 24 3 40 l3 27
8 -25 8 -25 1 28 c1 15 6 27 11 27 6 0 10 7 10 15 0 18 -16 20 -23 3 -3 -7 -6
3 -6 22 0 24 2 31 8 21 5 -7 14 -10 20 -7z m1058 -6 c-3 -8 -6 -5 -6 6 -1 11
2 17 5 13 3 -3 4 -12 1 -19z m2825 -8 c34 -11 69 -20 76 -20 29 0 145 -86 200
-148 58 -66 112 -173 112 -221 0 -18 -6 -21 -42 -21 l-43 1 -37 77 c-57 120
-134 188 -265 231 -199 66 -421 -34 -524 -235 -33 -67 -34 -70 -34 -193 0
-121 1 -129 32 -193 61 -129 185 -217 337 -239 94 -14 158 -3 255 44 114 56
176 131 230 279 10 26 12 27 43 16 49 -16 53 -23 39 -70 -42 -142 -131 -245
-272 -317 -211 -106 -438 -70 -610 99 -107 104 -159 232 -159 387 0 137 41
246 137 365 115 142 349 213 525 158z m-2497 -70 c-4 -12 -33 -16 -159 -18
l-153 -3 -7 26 c-12 49 36 73 80 40 16 -13 17 -16 4 -25 -11 -7 -5 -10 25 -9
31 0 36 2 20 9 -17 7 -16 9 10 11 17 1 49 3 73 4 23 2 40 -1 37 -5 -3 -5 -2
-11 3 -14 4 -2 9 5 9 16 2 28 12 35 23 18 7 -12 10 -11 16 5 7 17 9 16 16 -10
4 -17 6 -37 3 -45z m792 -7 c-3 -10 -5 -4 -5 12 0 17 2 24 5 18 2 -7 2 -21 0
-30z m-50 5 c-3 -8 -6 -5 -6 6 -1 11 2 17 5 13 3 -3 4 -12 1 -19z m29 -5 c-3
-10 -1 -25 4 -33 9 -13 10 -13 10 0 0 8 6 4 13 -10 7 -14 11 -33 9 -43 -4 -16
-11 -18 -41 -12 -20 4 -39 9 -43 11 -11 7 -10 64 0 64 17 0 21 -14 9 -29 -11
-14 -10 -14 6 -2 9 7 17 26 17 42 0 16 5 29 11 29 6 0 8 -8 5 -17z m1727 -48
c103 -31 212 -137 265 -258 11 -26 10 -29 -21 -47 -17 -11 -37 -20 -44 -20 -6
0 -27 -15 -47 -33 l-35 -34 -7 31 c-35 163 -207 267 -419 252 -44 -2 -93 -8
-110 -12 l-30 -7 25 28 c33 37 93 74 155 96 62 23 200 25 268 4z m-1489 -85
c30 2 46 -3 64 -19 31 -26 27 -34 -10 -26 -52 11 -98 44 -98 68 l1 22 19 -23
c10 -13 21 -23 24 -22z m1394 -94 c110 -40 171 -127 179 -258 3 -43 3 -78 0
-78 -11 0 -47 73 -47 96 0 23 -39 74 -65 85 -6 2 -25 24 -42 47 -17 24 -50 64
-73 88 -46 49 -40 52 48 20z m-190 0 c70 -19 144 -67 176 -116 14 -22 26 -42
26 -44 0 -2 -20 -12 -45 -22 l-45 -17 -22 29 c-13 15 -27 33 -33 40 -38 47
-164 76 -239 55 -22 -6 -42 -8 -45 -6 -12 13 27 56 63 69 79 29 96 30 164 12z
m-4276 -126 c4 0 8 -13 8 -30 0 -26 -8 -34 -75 -71 -41 -22 -77 -45 -81 -50
-3 -5 -13 -13 -23 -19 -16 -8 -17 -6 -13 16 2 14 7 23 10 20 6 -7 59 21 68 35
4 8 -1 9 -17 4 -24 -7 -24 -7 2 13 16 13 34 19 46 16 12 -3 24 0 28 7 6 9 2
11 -13 7 -25 -7 -27 0 -8 24 10 13 15 15 24 6 13 -13 14 -11 14 52 l0 45 11
-37 c6 -21 14 -38 19 -38z m5050 -28 c21 -21 21 -22 5 -57 -9 -20 -17 -44 -17
-53 0 -50 -56 -53 -210 -14 -81 21 -106 31 -108 45 -5 27 23 53 81 76 73 28
84 30 160 28 54 -2 71 -7 89 -25z m-498 -58 c23 -59 -14 -98 -102 -108 -56 -6
-112 6 -112 24 0 11 43 47 80 65 71 37 124 44 134 19z m-4744 -31 c0 -22 -2
-25 -10 -13 -13 20 -13 40 0 40 6 0 10 -12 10 -27z m4918 -37 c15 -7 46 -17
69 -21 40 -6 43 -8 37 -33 -25 -103 -121 -213 -231 -264 -76 -36 -96 -33 -57
7 82 85 144 207 144 285 0 45 1 45 38 26z m-1086 -66 c3 -16 0 -34 -5 -39 -7
-7 -6 -15 1 -24 9 -10 7 -19 -5 -37 -9 -13 -12 -20 -6 -17 10 7 23 -13 23 -35
0 -7 -5 -7 -13 1 -12 9 -15 -7 -22 -92 -4 -56 -7 -110 -7 -119 1 -11 -5 -15
-14 -11 -20 7 -18 -7 4 -23 15 -12 15 -13 -10 -14 -26 0 -26 0 -22 68 2 37 6
88 9 113 3 25 8 79 10 120 8 117 13 135 34 136 14 1 20 -6 23 -27z m-4006 -15
c-9 -9 -20 -14 -25 -10 -6 3 -21 -7 -35 -22 -14 -15 -28 -24 -32 -21 -3 4 10
23 30 43 20 19 36 31 36 25 0 -5 5 -10 10 -10 6 0 10 8 10 17 0 13 3 14 11 6
9 -9 8 -16 -5 -28z m4894 -8 c0 -39 -40 -171 -60 -199 -11 -15 -20 -32 -20
-37 0 -20 -41 -33 -81 -26 -21 4 -39 9 -39 12 0 3 9 18 20 34 35 48 64 121 70
174 5 48 6 50 40 56 64 12 70 10 70 -14z m-5133 -264 c-3 -10 -5 -2 -5 17 0
19 2 27 5 18 2 -10 2 -26 0 -35z m-20 -55 c-3 -7 -5 -2 -5 12 0 14 2 19 5 13
2 -7 2 -19 0 -25z m5463 -38 c0 -5 -2 -10 -4 -10 -3 0 -8 5 -11 10 -3 6 -1 10
4 10 6 0 11 -4 11 -10z m40 -50 c0 -5 -5 -10 -11 -10 -5 0 -7 5 -4 10 3 6 8
10 11 10 2 0 4 -4 4 -10z m14 -36 c3 -8 2 -12 -4 -9 -6 3 -10 10 -10 16 0 14
7 11 14 -7z m-1281 -36 c3 -10 12 -18 21 -18 9 0 16 -5 16 -11 0 -6 -7 -9 -15
-6 -17 7 -32 -12 -18 -22 5 -3 14 -32 19 -63 8 -46 8 -58 -3 -62 -11 -5 -12
-10 -2 -28 7 -13 18 -27 25 -31 8 -4 14 -19 14 -32 0 -14 6 -25 13 -25 16 0
43 -31 52 -59 7 -22 25 -29 25 -9 0 6 2 9 5 6 10 -10 -7 -37 -26 -43 -16 -5
-17 -10 -8 -27 21 -40 5 -164 -35 -265 -20 -51 -36 -96 -36 -100 -1 -5 -9 -26
-20 -48 -10 -22 -16 -43 -14 -47 3 -5 1 -8 -4 -8 -6 0 -13 -16 -16 -35 -4 -19
-10 -37 -15 -39 -7 -5 13 133 24 162 9 25 54 238 59 282 6 45 -8 112 -60 305
-29 110 -44 187 -44 231 0 31 2 33 19 22 11 -7 22 -20 24 -30z m1052 10 c-3
-23 2 -39 17 -55 12 -13 19 -26 15 -29 -10 -10 -57 30 -52 44 3 7 0 10 -5 7
-11 -7 -70 25 -70 37 0 4 18 8 39 8 22 0 43 5 46 10 11 18 14 11 10 -22z m292
-60 c-3 -8 -6 -5 -6 6 -1 11 2 17 5 13 3 -3 4 -12 1 -19z m-519 -94 c95 -42
189 -159 207 -258 7 -33 6 -33 -40 -45 -26 -6 -57 -18 -70 -27 -22 -14 -23
-14 -30 28 -4 24 -7 46 -7 50 4 19 -43 117 -73 153 -40 50 -143 105 -196 105
-50 0 -59 18 -12 23 69 8 166 -5 221 -29z m-253 -54 c37 -23 94 -99 97 -131 3
-20 -3 -24 -57 -35 -63 -13 -75 -11 -75 11 0 21 -40 86 -77 126 -27 28 -31 38
-21 46 31 26 73 20 133 -17z m119 10 c64 -24 127 -87 158 -158 39 -90 23 -237
-36 -328 -29 -45 -265 -188 -282 -171 -4 4 22 37 56 74 69 74 120 170 120 228
0 32 4 38 38 52 20 8 45 22 55 31 38 34 6 112 -46 112 -30 0 -67 27 -67 48 0
9 -20 43 -45 75 -52 66 -45 72 49 37z m776 -13 c0 -8 9 -22 20 -32 11 -10 20
-28 20 -39 -1 -21 -1 -21 -12 -1 -6 11 -20 29 -30 39 -20 21 -24 46 -8 46 6 0
10 -6 10 -13z m-6138 -72 c120 -42 188 -101 261 -230 35 -62 50 -100 62 -168
16 -84 15 -91 -3 -165 -26 -100 -61 -179 -101 -224 -24 -28 -46 -40 -99 -54
-43 -12 -93 -36 -142 -69 -41 -28 -90 -57 -108 -64 -61 -25 -206 6 -305 64
-47 27 -147 126 -147 145 0 6 16 18 36 26 l36 15 51 -52 c80 -79 138 -101 278
-107 l115 -4 76 36 c71 33 103 60 173 141 14 17 37 66 51 110 30 93 29 174 -4
267 -20 57 -76 139 -114 167 -11 9 -34 28 -52 43 -46 39 -143 68 -223 68 -155
0 -284 -68 -364 -193 -48 -74 -63 -124 -68 -224 -1 -20 -7 -23 -41 -23 l-40 0
0 53 c0 112 61 247 151 336 54 53 150 104 238 126 74 19 196 10 283 -20z
m4753 6 c3 -5 1 -12 -5 -16 -5 -3 -10 1 -10 9 0 18 6 21 15 7z m-4820 -106
c87 -23 157 -73 217 -155 28 -39 60 -121 33 -86 -8 11 -15 23 -15 27 0 15 -74
90 -104 105 -121 64 -129 66 -216 67 -68 0 -96 -4 -138 -23 -53 -23 -120 -87
-149 -143 -22 -44 -53 -146 -53 -178 0 -33 0 -32 -33 -20 -32 12 -38 48 -21
122 18 78 46 131 93 178 105 105 243 143 386 106z m5518 -14 c8 -6 12 -22 10
-34 -8 -41 -134 -71 -211 -51 -18 5 -22 13 -20 33 3 22 12 29 68 47 68 23 130
25 153 5z m-5578 -70 c-3 -6 -17 -11 -31 -11 -32 0 -105 -68 -124 -114 -11
-29 -20 -37 -49 -42 -59 -10 -71 -15 -71 -29 0 -11 6 -11 29 -2 24 9 41 7 83
-6 61 -19 168 -74 168 -87 0 -14 -31 -22 -135 -35 -103 -12 -125 -11 -125 9
-1 6 -7 25 -16 41 -14 29 -14 29 -9 -25 3 -39 10 -59 24 -70 14 -10 22 -32 26
-67 10 -91 61 -203 93 -203 6 0 12 -5 12 -10 0 -6 -11 -8 -27 -4 -66 16 -111
54 -137 114 -13 31 -12 38 5 72 26 51 24 63 -16 94 -34 26 -35 27 -29 88 15
162 132 286 279 294 38 2 55 0 50 -7z m5963 -12 c128 -14 161 -43 112 -99 -11
-12 -22 -38 -26 -57 -4 -19 -13 -37 -21 -40 -39 -15 -285 59 -310 93 -36 49 3
94 91 105 28 3 52 7 54 8 1 0 46 -4 100 -10z m-5834 -39 c4 -5 -10 -18 -33
-29 -51 -27 -109 -84 -117 -117 -4 -14 -11 -23 -18 -20 -6 3 -28 10 -48 17
-20 6 -39 18 -42 26 -6 15 31 80 58 102 40 33 171 47 200 21z m5294 -5 c62 -2
67 -4 70 -26 6 -55 -175 -289 -224 -289 -26 0 -94 57 -94 78 0 10 9 23 20 29
35 22 94 126 124 217 5 15 9 16 21 6 9 -7 46 -14 83 -15z m354 -118 c42 -18
42 -29 3 -82 -89 -119 -193 -177 -319 -176 -88 0 -102 13 -45 42 104 52 178
108 213 161 20 29 38 67 42 85 l6 32 32 -23 c17 -13 48 -31 68 -39z m-6147
-198 c50 -20 61 -28 63 -51 3 -25 -26 -68 -46 -68 -5 0 -17 -8 -28 -17 -21
-20 -111 -53 -142 -53 -46 0 -52 9 -46 64 5 38 2 61 -10 84 -22 42 -20 49 12
61 41 16 130 7 197 -20z m296 -79 c7 -101 13 -122 50 -177 l28 -43 -31 0 c-65
0 -134 84 -164 201 -23 90 -12 111 59 107 l52 -3 6 -85z"/>
<path d="M6622 6080 c0 -14 2 -19 5 -12 2 6 2 18 0 25 -3 6 -5 1 -5 -13z"/>
<path d="M6637 5854 c-4 -4 -7 -17 -7 -28 1 -19 1 -20 11 -3 11 19 8 43 -4 31z"/>
<path d="M6615 5790 c-3 -5 -1 -10 4 -10 6 0 11 5 11 10 0 6 -2 10 -4 10 -3 0
-8 -4 -11 -10z"/>
<path d="M6753 5655 c0 -22 2 -30 4 -17 2 12 2 30 0 40 -3 9 -5 -1 -4 -23z"/>
<path d="M6647 5674 c-20 -20 -5 -33 31 -27 56 9 58 16 7 27 -17 4 -34 4 -38
0z"/>
<path d="M394 4990 c-97 -20 -221 -111 -277 -202 -16 -26 -18 -27 -52 -13 -44
19 -65 19 -65 0 0 -8 9 -15 21 -15 11 0 40 -9 63 -20 32 -14 47 -28 55 -51 6
-18 11 -34 11 -35 0 -8 -69 -32 -109 -39 -51 -8 -59 -38 -9 -33 32 3 33 3 39
-51 22 -173 124 -297 290 -352 46 -16 87 -21 148 -21 77 1 92 4 159 37 40 20
89 51 108 67 134 118 172 325 92 495 -32 68 -131 164 -208 202 -52 25 -81 32
-145 36 -44 2 -99 0 -121 -5z m270 -64 c117 -66 196 -189 204 -318 2 -43 2
-78 -1 -78 -3 0 -13 25 -23 55 -27 89 -122 167 -253 210 -103 34 -281 -1 -370
-73 l-43 -35 -19 24 c-10 13 -19 30 -19 37 0 23 58 99 103 135 87 70 146 89
263 84 84 -4 98 -7 158 -41z m-174 -152 c0 -4 -13 -28 -28 -53 -16 -25 -31
-54 -35 -63 -5 -14 -18 -18 -62 -18 -65 0 -67 6 -25 70 25 38 37 47 77 57 58
14 73 15 73 7z m-172 -41 c-13 -27 -27 -61 -32 -75 -3 -11 -15 -18 -30 -18
-41 0 -47 -26 -38 -148 1 -13 11 -26 25 -31 21 -8 25 -17 30 -83 3 -41 12 -91
21 -111 8 -20 12 -37 7 -37 -8 0 -81 60 -116 95 -26 26 -75 125 -75 152 0 43
64 159 114 206 41 39 105 72 94 50z m85 -129 c75 -7 75 -7 80 -38 7 -43 -21
-66 -82 -66 -25 -1 -65 -5 -88 -9 -53 -10 -71 1 -79 51 -12 72 -1 76 169 62z
m-279 -13 c3 -4 -1 -17 -9 -27 -14 -18 -14 -18 -15 9 0 26 13 36 24 18z m285
-193 c-2 -64 2 -81 31 -141 18 -37 30 -70 27 -73 -3 -4 -27 1 -54 10 -83 28
-117 90 -111 201 3 60 3 60 38 66 74 13 71 16 69 -63z"/>
<path d="M4161 4955 c-18 -8 -44 -15 -56 -15 -13 0 -33 -9 -46 -21 l-24 -20
25 7 c14 4 93 10 175 14 l150 7 -112 1 c-62 1 -113 6 -113 11 0 5 39 12 86 16
88 8 151 -1 268 -38 71 -23 43 -3 -34 24 -84 29 -267 37 -319 14z"/>
<path d="M4406 4920 c10 -8 92 -25 84 -16 -3 2 -25 9 -49 15 -24 5 -39 6 -35
1z"/>
<path d="M4593 4893 c4 -3 1 -13 -5 -21 -11 -12 -8 -14 19 -8 18 4 34 3 38 -3
3 -6 0 -12 -7 -12 -7 -1 1 -4 17 -8 17 -3 30 -12 30 -19 0 -7 22 -25 49 -40
55 -30 65 -38 156 -122 35 -32 66 -57 68 -55 8 8 -56 84 -97 116 -143 109
-173 131 -216 154 -48 25 -64 31 -52 18z"/>
<path d="M2220 4818 c-93 -12 -251 -72 -344 -133 -118 -76 -218 -181 -271
-285 -21 -40 -18 -38 67 42 88 85 249 193 397 269 53 28 66 38 44 33 -37 -6
-191 -87 -271 -141 -87 -60 -75 -25 13 38 108 77 244 136 369 158 93 17 119
11 41 -8 -38 -10 -81 -24 -95 -30 -24 -11 -24 -11 5 -5 103 21 188 33 240 34
78 0 62 16 -30 30 -39 5 -74 9 -80 9 -5 -1 -44 -6 -85 -11z m-450 -258 c0 -11
-42 -52 -47 -46 -3 3 38 55 45 56 1 0 2 -4 2 -10z"/>
<path d="M4343 4263 c9 -2 23 -2 30 0 6 3 -1 5 -18 5 -16 0 -22 -2 -12 -5z"/>
<path d="M4557 4254 c-9 -10 4 -34 19 -34 8 0 14 3 14 6 0 10 -27 33 -33 28z"/>
<path d="M4557 4203 c-5 -4 -54 -11 -110 -14 -112 -6 -203 -38 -248 -85 -12
-13 -28 -24 -36 -24 -7 0 -13 -9 -13 -20 0 -10 -9 -24 -20 -30 -11 -6 -20 -16
-20 -23 0 -7 -11 -29 -25 -49 -24 -35 -25 -43 -25 -191 0 -204 22 -280 110
-380 118 -134 312 -145 427 -25 47 49 65 101 71 204 6 125 -30 277 -85 350
-13 17 -23 36 -23 42 0 6 -24 30 -52 55 -53 44 -113 67 -177 67 -43 0 -39 13
9 28 81 25 231 -14 334 -88 55 -40 128 -140 152 -207 19 -54 34 -69 34 -34 0
29 17 35 30 11 6 -11 15 -20 19 -20 8 0 6 13 -9 75 -6 23 1 36 25 47 32 14 23
28 -20 28 -27 0 -37 6 -55 35 -18 29 -20 38 -10 50 7 8 21 15 31 15 11 0 19 4
19 9 0 5 2 16 5 24 5 11 -2 13 -28 12 -19 -1 -39 -5 -45 -9 -18 -11 -59 4 -84
31 -16 19 -19 27 -10 30 16 6 52 44 52 55 0 13 -64 -4 -74 -19 -15 -27 -131 9
-138 43 -2 9 -7 12 -11 7z m-299 -230 c55 -74 21 -209 -63 -254 -40 -22 -44
-22 -68 -6 -25 16 -47 83 -47 144 0 36 45 109 78 128 32 18 82 12 100 -12z
m322 -430 c0 -18 -27 -82 -40 -98 -23 -28 -93 -72 -127 -79 -34 -8 -103 8
-141 32 -20 13 -52 60 -52 76 0 3 47 2 103 -1 116 -7 176 8 218 53 22 24 39
31 39 17z"/>
<path d="M6621 4114 c0 -11 3 -14 6 -6 3 7 2 16 -1 19 -3 4 -6 -2 -5 -13z"/>
<path d="M1431 4094 c0 -11 3 -14 6 -6 3 7 2 16 -1 19 -3 4 -6 -2 -5 -13z"/>
<path d="M1416 4053 c-6 -14 -5 -15 5 -6 7 7 10 15 7 18 -3 3 -9 -2 -12 -12z"/>
<path d="M2065 3990 c-3 -5 1 -10 9 -10 9 0 16 5 16 10 0 6 -4 10 -9 10 -6 0
-13 -4 -16 -10z"/>
<path d="M1396 3968 c-11 -56 -15 -101 -7 -92 10 10 25 114 17 114 -3 0 -8
-10 -10 -22z"/>
<path d="M2097 3940 c-6 -24 -63 -50 -107 -50 -20 0 -29 -4 -24 -11 7 -12 -70
-89 -89 -89 -34 1 -58 14 -54 30 3 13 -1 16 -19 12 -16 -3 -24 -11 -24 -24 0
-14 5 -18 16 -14 10 4 24 -2 35 -15 24 -28 24 -26 -7 -71 -27 -39 -35 -42
-108 -38 -50 2 -39 -18 15 -26 22 -4 42 -10 44 -14 3 -5 -2 -34 -10 -66 -21
-80 -20 -84 15 -84 29 0 30 -2 30 -43 0 -56 35 -180 68 -241 41 -75 117 -154
160 -166 64 -17 188 -13 231 10 52 26 112 97 134 156 33 94 17 272 -37 398
-33 78 -150 179 -224 192 -68 12 -71 21 -18 44 42 19 62 22 150 18 114 -5 183
-31 258 -97 17 -15 33 -21 44 -17 16 6 16 8 2 23 -13 13 -14 20 -5 35 10 16 7
24 -28 54 -82 74 -220 112 -352 98 -28 -3 -61 -1 -71 5 -16 9 -21 7 -25 -9z
m-49 -210 c11 -11 24 -36 28 -56 15 -81 -19 -149 -93 -185 -73 -35 -109 -11
-120 82 -5 45 -3 52 31 96 63 81 112 101 154 63z m259 -514 c-23 -67 -60 -95
-125 -96 -73 0 -115 20 -156 77 -19 26 -33 49 -31 51 2 2 24 -4 49 -13 60 -23
174 -17 231 12 22 12 42 20 44 18 2 -2 -4 -24 -12 -49z"/>
<path d="M1915 3920 c-3 -5 3 -10 14 -10 12 0 21 5 21 10 0 6 -6 10 -14 10 -8
0 -18 -4 -21 -10z"/>
<path d="M5828 3223 c7 -3 16 -2 19 1 4 3 -2 6 -13 5 -11 0 -14 -3 -6 -6z"/>
<path d="M5882 3180 c7 -11 17 -20 22 -20 5 0 1 9 -9 20 -10 11 -20 20 -22 20
-2 0 2 -9 9 -20z"/>
<path d="M5910 3136 c0 -8 4 -17 9 -20 5 -4 7 3 4 14 -6 23 -13 26 -13 6z"/>
<path d="M5417 3092 c-23 -26 -21 -33 6 -23 13 5 36 7 51 4 20 -4 27 -2 22 6
-4 6 -15 11 -25 11 -9 0 -22 5 -27 10 -7 7 -16 5 -27 -8z"/>
<path d="M5356 3044 c-3 -9 -5 -28 -5 -42 1 -21 2 -22 6 -7 3 10 12 29 20 42
14 20 14 23 0 23 -8 0 -18 -7 -21 -16z"/>
<path d="M5541 3034 c13 -17 26 -30 28 -27 3 2 -8 16 -24 31 l-28 27 24 -31z"/>
<path d="M3217 3033 c-4 -3 -7 -13 -7 -22 1 -13 3 -13 11 2 11 19 8 33 -4 20z"/>
<path d="M885 2987 c-62 -23 -109 -50 -100 -59 3 -2 33 9 66 26 53 26 73 30
143 31 80 0 82 -1 157 -47 89 -57 109 -61 54 -13 -97 85 -200 105 -320 62z"/>
<path d="M5332 2928 c2 -13 10 -23 18 -23 8 0 25 -21 38 -47 19 -37 24 -64 24
-130 1 -80 1 -81 11 -39 16 68 -3 161 -45 216 -37 49 -51 56 -46 23z"/>
<path d="M746 2883 c-6 -14 -5 -15 5 -6 7 7 10 15 7 18 -3 3 -9 -2 -12 -12z"/>
<path d="M1253 2859 c9 -13 24 -34 33 -46 29 -40 55 -128 61 -208 9 -116 20
-134 15 -24 -3 58 -12 113 -23 144 -27 71 -71 148 -89 153 -12 4 -11 0 3 -19z"/>
<path d="M720 2850 c0 -5 5 -10 10 -10 6 0 10 5 10 10 0 6 -4 10 -10 10 -5 0
-10 -4 -10 -10z"/>
<path d="M810 2832 c-34 -35 -49 -83 -56 -182 -4 -55 -3 -71 5 -60 6 8 11 40
11 70 0 64 36 152 69 170 12 6 21 15 21 20 0 18 -21 10 -50 -18z"/>
<path d="M1095 2850 c-3 -5 1 -10 9 -10 8 0 18 5 21 10 3 6 -1 10 -9 10 -8 0
-18 -4 -21 -10z"/>
<path d="M5623 2775 c0 -33 2 -45 4 -27 2 18 2 45 0 60 -2 15 -4 0 -4 -33z"/>
<path d="M997 2743 c-27 -48 -41 -128 -41 -233 0 -107 2 -119 28 -170 27 -53
70 -100 127 -141 46 -33 39 -21 -27 44 -53 51 -69 74 -89 130 -32 89 -34 223
-5 311 11 33 18 61 16 63 -2 3 -6 1 -9 -4z"/>
<path d="M5988 2683 c-33 -70 -70 -109 -353 -377 -52 -50 -95 -94 -95 -99 0
-6 24 12 53 39 29 27 97 90 151 139 140 128 234 225 247 257 6 15 16 25 23 22
9 -4 13 9 14 41 0 25 -2 45 -4 45 -2 0 -18 -30 -36 -67z"/>
<path d="M6040 2679 c0 -21 29 -38 85 -48 32 -6 67 -19 77 -28 12 -11 32 -16
54 -15 20 2 33 -1 30 -6 -3 -5 16 -7 41 -5 38 4 45 2 40 -11 -11 -29 32 -38
211 -43 97 -2 179 -9 183 -14 3 -5 39 -14 80 -20 144 -20 139 -21 139 5 0 21
-8 24 -102 40 -168 29 -262 47 -283 56 -25 10 -153 35 -318 61 -70 11 -139 24
-153 29 -34 13 -84 13 -84 -1z m405 -129 c-3 -5 -15 -10 -26 -10 -10 0 -19 5
-19 10 0 6 12 10 26 10 14 0 23 -4 19 -10z"/>
<path d="M5581 2573 c-7 -17 -26 -43 -42 -59 -16 -15 -29 -32 -29 -38 0 -14
48 34 71 71 12 18 19 38 17 45 -2 6 -10 -2 -17 -19z"/>
<path d="M6317 2551 c-6 -25 10 -38 26 -22 8 8 7 15 -5 27 -14 14 -16 14 -21
-5z"/>
<path d="M5347 2553 c-4 -3 -7 -11 -7 -17 0 -6 5 -5 12 2 6 6 9 14 7 17 -3 3
-9 2 -12 -2z"/>
<path d="M5250 2496 c-10 -28 4 -32 35 -8 l25 20 -26 5 c-19 3 -27 -1 -34 -17z"/>
<path d="M5465 2454 c-11 -9 -33 -22 -50 -30 -16 -7 -24 -13 -17 -14 17 0 89
37 97 50 9 15 -7 12 -30 -6z"/>
<path d="M1396 2405 c16 -24 43 -45 60 -45 11 0 -37 50 -59 62 -18 9 -18 8 -1
-17z"/>
<path d="M3625 2139 c-33 -5 -69 -13 -80 -17 -11 -5 -40 -19 -65 -30 -25 -12
-61 -28 -80 -36 -19 -8 -29 -15 -22 -16 7 0 37 11 65 24 105 49 148 59 264 60
61 0 106 4 100 8 -23 12 -122 16 -182 7z"/>
<path d="M5409 2024 c-22 -25 -22 -26 -3 -16 12 6 24 18 28 27 8 21 3 19 -25
-11z"/>
<path d="M3253 1992 c-92 -42 -131 -66 -117 -74 5 -2 59 22 119 53 123 66 123
77 -2 21z"/>
<path d="M5075 1930 c-3 -5 1 -10 10 -10 9 0 13 5 10 10 -3 6 -8 10 -10 10 -2
0 -7 -4 -10 -10z"/>
<path d="M5258 1933 c7 -3 16 -2 19 1 4 3 -2 6 -13 5 -11 0 -14 -3 -6 -6z"/>
<path d="M5208 1923 c6 -2 18 -2 25 0 6 3 1 5 -13 5 -14 0 -19 -2 -12 -5z"/>
<path d="M4996 1813 c-6 -14 -5 -15 5 -6 7 7 10 15 7 18 -3 3 -9 -2 -12 -12z"/>
<path d="M4948 1758 c-10 -12 -18 -27 -18 -33 1 -12 40 33 40 46 0 13 -3 11
-22 -13z"/>
<path d="M1860 1730 c0 -5 5 -10 11 -10 5 0 7 5 4 10 -3 6 -8 10 -11 10 -2 0
-4 -4 -4 -10z"/>
<path d="M1885 1700 c3 -5 8 -10 11 -10 2 0 4 5 4 10 0 6 -5 10 -11 10 -5 0
-7 -4 -4 -10z"/>
<path d="M4902 1703 c-7 -2 -17 -14 -23 -25 -9 -17 -8 -18 9 -9 15 8 41 45 29
40 -1 0 -8 -3 -15 -6z"/>
<path d="M1955 1630 c10 -11 20 -20 23 -20 3 0 -3 9 -13 20 -10 11 -20 20 -23
20 -3 0 3 -9 13 -20z"/>
<path d="M4778 1597 c-49 -42 -247 -180 -438 -307 -286 -190 -519 -305 -695
-341 -39 -9 -52 -14 -37 -17 50 -8 212 48 392 136 41 21 80 36 87 34 7 -2 16
5 20 14 3 9 29 26 57 38 47 20 61 21 181 15 72 -4 694 -7 1383 -8 1062 -1
1252 1 1252 13 0 8 -15 17 -35 20 -19 4 -633 5 -1365 4 -731 -2 -1330 0 -1330
3 0 11 35 36 80 59 25 13 47 26 50 30 3 4 31 20 62 35 l57 28 83 -23 c75 -21
102 -23 286 -21 138 1 202 -2 197 -9 -4 -6 18 -10 64 -10 41 0 71 4 71 10 0 6
7 10 15 10 8 0 15 -4 15 -10 0 -6 36 -10 88 -10 61 -1 93 -5 106 -15 27 -20
80 -20 72 0 -3 9 0 15 9 15 8 0 15 -7 15 -15 0 -12 15 -15 79 -15 54 0 81 4
84 13 4 9 8 9 14 1 11 -16 21 -16 301 -15 215 1 242 3 242 17 0 17 -2 17 -135
-2 -23 -3 -56 -2 -75 4 -35 9 -34 9 31 20 81 15 179 16 179 2 0 -6 33 -10 80
-10 67 0 80 -3 80 -16 0 -15 2 -15 25 0 27 18 55 21 55 6 0 -6 33 -10 80 -10
44 0 80 4 80 8 0 5 64 8 143 8 78 -1 154 2 170 7 25 7 27 11 27 57 0 39 -4 50
-19 55 -10 3 -555 3 -1210 0 -655 -4 -1191 -4 -1191 -1 0 6 118 97 184 143 51
35 122 102 109 103 -6 0 -40 -24 -75 -53z"/>
<path d="M4888 1293 c6 -2 18 -2 25 0 6 3 1 5 -13 5 -14 0 -19 -2 -12 -5z"/>
<path d="M6128 1293 c6 -2 18 -2 25 0 6 3 1 5 -13 5 -14 0 -19 -2 -12 -5z"/>
<path d="M5283 1273 c15 -2 39 -2 55 0 15 2 2 4 -28 4 -30 0 -43 -2 -27 -4z"/>
<path d="M2575 1245 c52 -40 103 -69 147 -81 26 -8 54 -24 62 -35 10 -14 22
-19 42 -17 25 3 10 13 -95 67 -68 34 -136 67 -150 72 -25 8 -25 8 -6 -6z"/>
<path d="M2493 1183 c9 -2 23 -2 30 0 6 3 -1 5 -18 5 -16 0 -22 -2 -12 -5z"/>
<path d="M2915 1081 c22 -10 51 -21 65 -25 14 -3 7 2 -15 13 -22 10 -51 21
-65 25 -14 3 -7 -2 15 -13z"/>
<path d="M4086 1064 c-4 -14 -5 -28 -3 -31 3 -2 8 8 11 23 4 14 5 28 3 31 -3
2 -8 -8 -11 -23z"/>
<path d="M2807 1049 c4 -13 8 -18 11 -10 2 7 -1 18 -6 23 -8 8 -9 4 -5 -13z"/>
<path d="M4082 970 c0 -14 2 -19 5 -12 2 6 2 18 0 25 -3 6 -5 1 -5 -13z"/>
<path d="M3278 943 c7 -3 16 -2 19 1 4 3 -2 6 -13 5 -11 0 -14 -3 -6 -6z"/>
<path d="M1540 920 c0 -11 4 -20 9 -20 5 0 7 9 4 20 -3 11 -7 20 -9 20 -2 0
-4 -9 -4 -20z"/>
<path d="M3340 930 c25 -8 187 -13 179 -6 -2 2 -49 6 -104 8 -55 3 -89 2 -75
-2z"/>
<path d="M2827 630 c-4 -63 -10 -141 -12 -172 -2 -32 0 -60 4 -63 12 -7 23
139 19 255 l-3 95 -8 -115z"/>
<path d="M462 681 c-8 -4 84 -11 210 -15 123 -3 250 -8 283 -11 51 -4 54 -3
20 4 -104 23 -487 39 -513 22z"/>
<path d="M1090 631 c62 -23 133 -42 137 -37 9 9 -70 37 -117 42 -35 3 -40 2
-20 -5z"/>
<path d="M1295 570 c11 -4 49 -17 85 -28 36 -11 74 -23 85 -27 30 -9 -53 30
-103 49 -45 17 -107 23 -67 6z"/>
<path d="M4110 558 c0 -9 5 -20 10 -23 13 -8 13 5 0 25 -8 13 -10 13 -10 -2z"/>
<path d="M6305 510 c-13 -6 -15 -9 -5 -9 8 0 22 4 30 9 18 12 2 12 -25 0z"/>
<path d="M4120 502 c0 -19 12 -42 22 -42 14 0 5 43 -9 48 -7 2 -13 -1 -13 -6z"/>
<path d="M1544 485 c16 -9 32 -13 35 -10 8 9 -21 25 -44 25 -16 0 -14 -3 9
-15z"/>
<path d="M6228 493 c6 -2 18 -2 25 0 6 3 1 5 -13 5 -14 0 -19 -2 -12 -5z"/>
<path d="M2480 479 c0 -5 5 -7 10 -4 6 3 10 8 10 11 0 2 -4 4 -10 4 -5 0 -10
-5 -10 -11z"/>
<path d="M2583 483 c9 -2 23 -2 30 0 6 3 -1 5 -18 5 -16 0 -22 -2 -12 -5z"/>
<path d="M6090 476 c-41 -6 -84 -17 -95 -24 -17 -10 -13 -11 25 -6 57 8 191
42 165 42 -11 0 -54 -5 -95 -12z"/>
<path d="M1620 456 c14 -8 27 -12 29 -10 6 6 -1 11 -29 18 l-25 7 25 -15z"/>
<path d="M5855 414 c-106 -28 -179 -53 -160 -53 20 -1 246 57 254 65 8 8 -45
2 -94 -12z"/>
<path d="M4160 346 c0 -2 7 -7 16 -10 8 -3 12 -2 9 4 -6 10 -25 14 -25 6z"/>
<path d="M5552 336 c-29 -8 -56 -17 -60 -21 -8 -8 11 -5 98 18 68 18 35 20
-38 3z"/>
<path d="M5400 280 c-18 -12 -2 -12 25 0 13 6 15 9 5 9 -8 0 -22 -4 -30 -9z"/>
<path d="M2693 240 c-18 -11 -33 -22 -33 -25 0 -8 58 23 65 35 9 14 5 13 -32
-10z"/>
<path d="M2615 200 c-11 -5 -38 -16 -59 -25 -22 -8 -36 -18 -33 -21 3 -4 27 3
52 15 24 11 49 21 54 21 6 0 13 5 16 10 7 12 -3 12 -30 0z"/>
<path d="M4430 186 c0 -2 15 -9 33 -15 29 -10 30 -9 13 4 -18 14 -46 20 -46
11z"/>
<path d="M2450 130 c-12 -8 -11 -10 8 -10 12 0 22 5 22 10 0 13 -11 13 -30 0z"/>
<path d="M2405 110 c-16 -7 -17 -9 -3 -9 9 -1 20 4 23 9 7 11 7 11 -20 0z"/>
<path d="M4598 103 c7 -3 16 -2 19 1 4 3 -2 6 -13 5 -11 0 -14 -3 -6 -6z"/>
<path d="M2138 23 c7 -3 16 -2 19 1 4 3 -2 6 -13 5 -11 0 -14 -3 -6 -6z"/>
<path d="M4801 26 c2 -2 18 -6 34 -10 22 -5 26 -4 15 4 -14 9 -59 15 -49 6z"/>
</g>
</svg>
